<?xml version="1.0" encoding="UTF-8" standalone="no"?>
<svg
   xmlns:dc="http://purl.org/dc/elements/1.1/"
   xmlns:cc="http://creativecommons.org/ns#"
   xmlns:rdf="http://www.w3.org/1999/02/22-rdf-syntax-ns#"
   xmlns:svg="http://www.w3.org/2000/svg"
   xmlns="http://www.w3.org/2000/svg"
   xmlns:sodipodi="http://sodipodi.sourceforge.net/DTD/sodipodi-0.dtd"
   xmlns:inkscape="http://www.inkscape.org/namespaces/inkscape"
   version="1.1"
   id="Layer_1"
   x="0px"
   y="0px"
   viewBox="0 0 2030.6 546.3"
   style="enable-background:new 0 0 2030.6 546.3;"
   xml:space="preserve"
   sodipodi:docname="github.svg"
   inkscape:version="1.0.2 (e86c870879, 2021-01-15)"><metadata
   id="metadata13"><rdf:RDF><cc:Work
       rdf:about=""><dc:format>image/svg+xml</dc:format><dc:type
         rdf:resource="http://purl.org/dc/dcmitype/StillImage" /><dc:title></dc:title></cc:Work></rdf:RDF></metadata><defs
   id="defs11" /><sodipodi:namedview
   pagecolor="#ffffff"
   bordercolor="#666666"
   borderopacity="1"
   objecttolerance="10"
   gridtolerance="10"
   guidetolerance="10"
   inkscape:pageopacity="0"
   inkscape:pageshadow="2"
   inkscape:window-width="1366"
   inkscape:window-height="699"
   id="namedview9"
   showgrid="false"
   inkscape:zoom="0.29621787"
   inkscape:cx="621.51665"
   inkscape:cy="214.58659"
   inkscape:window-x="0"
   inkscape:window-y="32"
   inkscape:window-maximized="1"
   inkscape:current-layer="Layer_1" />
<style
   type="text/css"
   id="style2">
	.st0{fill:#CED4DA;}
</style>

<g
   id="g100"
   transform="matrix(0.87295949,0,0,0.87295949,343.97075,38.257041)"
   style="opacity:0.5;fill:#4e4e4e;fill-opacity:1"><path
     style="fill:#4e4e4e;fill-opacity:1;fill-rule:nonzero;stroke:none;stroke-width:4.89908"
     d="m 471.68917,231.15156 h -148.2736 c -3.82752,0 -6.92791,3.1002 -6.92791,6.92762 v 72.49108 c 0,3.82742 3.10039,6.94676 6.92791,6.94676 h 57.83186 v 90.0781 c 0,0 -12.97474,4.42064 -48.89482,4.42064 -42.36961,0 -101.54148,-15.48187 -101.54148,-145.61376 0,-130.17019 61.62153,-147.29788 119.47286,-147.29788 50.08162,0 71.66821,8.82216 85.38956,13.07063 4.32467,1.32043 8.30542,-2.96628 8.30542,-6.79366 l 16.53441,-70.041594 c 0,-1.798871 -0.5934,-3.96139 -2.64109,-5.415791 -5.5688,-3.980497 -39.5944,-23.021852 -125.51968,-23.021852 -98.97681,0 -200.53739,42.120633 -200.53739,244.571437 0,202.46995 116.25783,232.62996 214.23927,232.62996 81.10274,0 130.30437,-34.65717 130.30437,-34.65717 2.02858,-1.12909 2.25786,-3.96136 2.25786,-5.24354 V 238.07918 c 0,-3.82742 -3.10002,-6.92762 -6.92755,-6.92762"
     id="path11" /><path
     style="fill:#4e4e4e;fill-opacity:1;fill-rule:nonzero;stroke:none;stroke-width:4.89908"
     d="m 1235.8699,51.167605 c 0,-3.865669 -3.0618,-6.965874 -6.8893,-6.965874 h -83.4952 c -3.808,0 -6.9084,3.100205 -6.9084,6.965874 0,0.01838 0.037,161.344465 0.037,161.344465 H 1008.4818 V 51.167605 c 0,-3.865669 -3.081,-6.965874 -6.8894,-6.965874 h -83.49514 c -3.78892,0 -6.88938,3.100205 -6.88938,6.965874 V 488.04728 c 0,3.86571 3.10046,6.98503 6.88938,6.98503 h 83.49514 c 3.8084,0 6.8894,-3.11932 6.8894,-6.98503 V 301.17397 h 130.132 c 0,0 -0.2315,186.85411 -0.2315,186.87331 0,3.86571 3.1003,6.98503 6.9276,6.98503 h 83.6864 c 3.8272,0 6.8703,-3.11932 6.8894,-6.98503 V 51.167605"
     id="path13" /><path
     style="fill:#4e4e4e;fill-opacity:1;fill-rule:nonzero;stroke:none;stroke-width:4.89908"
     d="m 629.24444,108.48307 c 0,-30.045149 -24.11267,-54.349228 -53.8515,-54.349228 -29.70053,0 -53.81321,24.304079 -53.81321,54.349228 0,30.04519 24.11268,54.40663 53.81321,54.40663 29.73883,0 53.8515,-24.36144 53.8515,-54.40663"
     id="path15" /><path
     style="fill:#4e4e4e;fill-opacity:1;fill-rule:nonzero;stroke:none;stroke-width:4.89908"
     d="m 623.27372,395.88325 c 0,-11.19519 0,-201.66622 0,-201.66622 0,-3.82742 -3.10005,-6.94676 -6.9085,-6.94676 h -83.22684 c -3.82753,0 -7.23399,3.92313 -7.23399,7.75056 0,0 0,242.67682 0,288.93111 0,8.49684 5.28183,11.02295 12.13295,11.02295 0,0 35.51853,0 74.97918,0 8.22897,0 10.2572,-4.03791 10.2572,-11.157 0,-15.48178 0,-76.1462 0,-87.93464"
     id="path17" /><path
     style="fill:#4e4e4e;fill-opacity:1;fill-rule:nonzero;stroke:none;stroke-width:4.89908"
     d="m 1553.1622,187.92099 h -82.8443 c -3.7894,0 -6.8893,3.13845 -6.8893,6.98501 v 214.22006 c 0,0 -21.051,15.40532 -50.9238,15.40532 -29.8729,0 -37.7955,-13.56817 -37.7955,-42.80956 0,-29.29883 0,-186.81582 0,-186.81582 0,-3.84656 -3.1004,-6.98501 -6.9088,-6.98501 h -84.0881 c -3.789,0 -6.8893,3.13845 -6.8893,6.98501 0,0 0,114.07589 0,200.9581 0,86.88222 48.4168,108.14341 115.0328,108.14341 54.6554,0 98.7089,-30.19816 98.7089,-30.19816 0,0 2.105,15.922 3.0618,17.79739 0.9377,1.87547 3.4065,3.78917 6.0858,3.78917 l 53.4881,-0.24874 c 3.789,0 6.908,-3.11925 6.908,-6.96584 l -0.047,-293.27525 c 0,-3.84656 -3.081,-6.98501 -6.9081,-6.98501"
     id="path19" /><path
     style="fill:#4e4e4e;fill-opacity:1;fill-rule:nonzero;stroke:none;stroke-width:4.89908"
     d="m 1746.9441,424.26345 c -28.7438,-0.88027 -48.2449,-13.91259 -48.2449,-13.91259 V 271.98997 c 0,0 19.2328,-11.78841 42.8289,-13.89346 29.8343,-2.6792 58.5784,6.33433 58.5784,77.52415 0,75.03637 -12.9747,89.84842 -53.1624,88.64279 z m 32.6664,-246.15979 c -47.0577,0 -79.055,20.99334 -79.055,20.99334 V 51.167605 c 0,-3.865669 -3.1001,-6.965874 -6.889,-6.965874 h -83.7438 c -3.789,0 -6.8894,3.100205 -6.8894,6.965874 V 488.04728 c 0,3.86571 3.1004,6.98503 6.9085,6.98503 0,0 58.081,0 58.1,0 2.6026,0 4.5929,-1.33959 6.0476,-3.69351 1.454,-2.35383 3.5399,-20.1513 3.5399,-20.1513 0,0 34.2364,32.4373 99.0344,32.4373 76.0888,0 119.7408,-38.5803 119.7408,-173.24768 0,-134.6674 -69.6973,-152.27346 -116.794,-152.27346"
     id="path21" /><path
     style="fill:#4e4e4e;fill-opacity:1;fill-rule:nonzero;stroke:none;stroke-width:4.89908"
     d="m 863.23317,187.23202 h -62.6353 c 0,0 -0.0955,-82.72949 -0.0955,-82.74859 0,-3.13849 -1.60753,-4.688568 -5.24362,-4.688568 h -85.33224 c -3.32967,0 -5.10957,1.454398 -5.10957,4.650288 v 85.48517 c 0,0 -42.75209,10.33405 -45.66099,11.15695 -2.87043,0.842 -4.99488,3.50206 -4.99488,6.65965 v 53.73683 c 0,3.86567 3.08126,6.98501 6.90841,6.98501 h 43.74746 c 0,0 0,56.18638 0,129.25165 0,96.01054 67.34321,105.44506 112.7937,105.44506 20.76396,0 45.60373,-6.67879 49.69915,-8.19058 2.48755,-0.91858 3.92305,-3.483 3.92305,-6.25785 l 0.0771,-59.11432 c 0,-3.84659 -3.25363,-6.96592 -6.92794,-6.96592 -3.65487,0 -12.99382,1.47357 -22.60071,1.47357 -30.75323,0 -41.18279,-14.29534 -41.18279,-32.80091 0,-18.50549 0,-122.8407 0,-122.8407 h 62.6353 c 3.80836,0 6.90882,-3.11934 6.90882,-6.98501 v -67.30496 c 0,-3.84657 -3.10046,-6.94677 -6.90882,-6.94677"
     id="path23" /></g><path
   style="fill:#4e4e4e;fill-opacity:1;fill-rule:evenodd;stroke:none;stroke-width:11.9537;opacity:0.5"
   d="m 223.53833,80.113859 c -107.5369,0 -194.715204,87.178301 -194.715204,194.715291 0,86.01093 55.799728,158.99419 133.172214,184.76945 9.71248,1.77432 13.26113,-4.20249 13.26113,-9.3856 0,-4.62269 -0.13986,-16.85666 -0.2331,-33.10629 -54.16534,11.76697 -65.60544,-26.10214 -65.60544,-26.10214 -8.87198,-22.5066 -21.619476,-28.48349 -21.619476,-28.48349 -17.69716,-12.09385 1.354116,-11.86039 1.354116,-11.86039 19.51819,1.40083 29.79091,20.07861 29.79091,20.07861 17.37038,29.7443 45.62042,21.15248 56.68693,16.1562 1.77442,-12.56075 6.81731,-21.15247 12.37401,-26.00871 -43.23897,-4.90295 -88.71926,-21.61949 -88.71926,-96.23703 0,-21.2459 7.61119,-38.61619 20.07861,-52.2509 -2.00786,-4.90294 -8.73185,-24.7013 1.91455,-51.55051 0,0 16.34286,-5.22974 53.51159,19.98519 15.54926,-4.34262 32.21908,-6.49053 48.74878,-6.58395 16.52988,0.0932 33.19979,2.24133 48.74896,6.58395 37.16864,-25.21493 53.51168,-19.98519 53.51168,-19.98519 10.59959,26.84921 3.92232,46.64757 1.91445,51.55051 12.51405,13.63471 20.0319,31.005 20.0319,52.2509 0,74.80429 -45.5269,91.28746 -88.906,96.0969 7.00415,6.02361 13.21451,17.884 13.21451,36.04807 0,26.00872 -0.2331,47.02116 -0.2331,53.41827 0,5.22973 3.50212,11.25334 13.40125,9.3856 77.27899,-25.82197 133.03209,-98.75852 133.03209,-184.76945 0,-107.53699 -87.1783,-194.715291 -194.71538,-194.715291"
   id="path11-3" /></svg>
