<?xml version="1.0" encoding="UTF-8" standalone="no"?>
<svg
   xmlns:dc="http://purl.org/dc/elements/1.1/"
   xmlns:cc="http://creativecommons.org/ns#"
   xmlns:rdf="http://www.w3.org/1999/02/22-rdf-syntax-ns#"
   xmlns:svg="http://www.w3.org/2000/svg"
   xmlns="http://www.w3.org/2000/svg"
   xmlns:sodipodi="http://sodipodi.sourceforge.net/DTD/sodipodi-0.dtd"
   xmlns:inkscape="http://www.inkscape.org/namespaces/inkscape"
   version="1.1"
   id="Layer_1"
   x="0px"
   y="0px"
   viewBox="0 0 2030.6 546.3"
   style="enable-background:new 0 0 2030.6 546.3;"
   xml:space="preserve"
   sodipodi:docname="instagram.svg"
   inkscape:version="1.0.2 (e86c870879, 2021-01-15)"><metadata
   id="metadata13"><rdf:RDF><cc:Work
       rdf:about=""><dc:format>image/svg+xml</dc:format><dc:type
         rdf:resource="http://purl.org/dc/dcmitype/StillImage" /><dc:title></dc:title></cc:Work></rdf:RDF></metadata><defs
   id="defs11" /><sodipodi:namedview
   pagecolor="#ffffff"
   bordercolor="#666666"
   borderopacity="1"
   objecttolerance="10"
   gridtolerance="10"
   guidetolerance="10"
   inkscape:pageopacity="0"
   inkscape:pageshadow="2"
   inkscape:window-width="1366"
   inkscape:window-height="699"
   id="namedview9"
   showgrid="false"
   inkscape:zoom="0.29621787"
   inkscape:cx="986.56499"
   inkscape:cy="651.5452"
   inkscape:window-x="0"
   inkscape:window-y="32"
   inkscape:window-maximized="1"
   inkscape:current-layer="Layer_1"
   inkscape:document-rotation="0" />
<style
   type="text/css"
   id="style2">
	.st0{fill:#CED4DA;}
</style>

<path
   style="opacity:0.5;fill:#4e4e4e;fill-opacity:1;stroke-width:1.99056"
   d="m 522.12274,81.198233 c -32.26751,13.50672 -67.74022,51.664887 -78.94367,99.561637 -14.18829,60.68708 44.85579,86.34973 49.69862,77.93525 5.69995,-9.88709 -10.58001,-13.23063 -13.93111,-44.71784 -4.33105,-40.66844 14.57565,-86.11085 38.37036,-106.04966 4.42302,-3.70442 4.21261,1.45152 4.21261,10.98847 0,17.05429 -0.94232,170.15176 -0.94232,202.10337 0,43.23449 -1.78573,56.88711 -4.99292,70.37771 -3.24958,13.67134 -8.4738,22.90896 -4.51518,26.46726 4.42282,3.9803 23.30663,-5.4874 34.23877,-20.74521 13.1092,-18.29938 17.69803,-40.27592 18.52192,-64.14209 0.99508,-28.76991 0.95268,-74.42174 0.99508,-100.46121 0.0398,-23.88209 0.40229,-93.8141 -0.41861,-135.854647 -0.20125,-10.31168 -28.79917,-21.13015 -42.29514,-15.47558 M 1667.9397,283.53251 c -1.0403,22.47656 -6.0157,40.04501 -12.1906,52.43702 -11.9543,23.99019 -36.7598,31.43945 -47.2918,-3.04734 -5.7396,-18.79881 -6.0077,-50.19466 -1.8813,-76.42783 4.2005,-26.72421 15.9292,-46.90706 35.3507,-45.08689 19.1561,1.79926 28.1225,26.48276 26.013,72.12404 z m -322.9389,139.45022 c -0.26,37.3462 -6.1377,70.0911 -18.7421,79.6015 -17.877,13.4854 -41.905,3.3699 -36.9296,-23.8821 4.4023,-24.1153 25.2221,-48.7433 55.7222,-78.83474 0,0 0.064,6.86224 -0.05,23.11534 z m -4.8825,-139.66779 c -1.0932,20.47168 -6.4004,41.03731 -12.1905,52.65738 -11.9517,23.98999 -36.9376,31.48981 -47.2919,-3.04734 -7.0796,-23.59725 -5.384,-54.13816 -1.8813,-73.38168 4.5455,-24.96755 15.5632,-48.13046 35.3507,-48.13046 19.2384,0 28.725,21.10647 26.013,71.90369 z m -187.079,-0.31311 c -1.1729,21.68153 -5.4026,39.80615 -12.1904,52.97049 -12.2807,23.82497 -36.5767,31.38092 -47.2918,-3.04734 -7.7246,-24.82542 -5.0949,-58.67565 -1.8815,-76.9615 4.7686,-27.13526 16.7095,-46.37359 35.3509,-44.55064 19.1481,1.87073 28.4568,26.47997 26.0128,71.59058 z m 857.3401,25.32505 c -4.681,0 -6.817,4.82491 -8.5842,12.94658 -6.1298,28.23922 -12.5726,34.61557 -20.881,34.61557 -9.2821,0 -17.6224,-13.98286 -19.7664,-41.97406 -1.685,-22.00998 -1.4143,-62.53116 0.7405,-102.83893 0.4403,-8.28171 -1.8443,-16.47583 -24.0573,-24.54535 -9.5582,-3.47093 -23.4523,-8.58169 -30.3701,8.11729 -19.5461,47.17758 -27.1938,84.6327 -28.9928,99.84831 -0.094,0.78747 -1.0588,0.9483 -1.2286,-0.89157 -1.1464,-12.18658 -3.7096,-34.33194 -4.0281,-80.8594 -0.062,-9.07793 -1.9848,-16.80507 -12.0046,-23.13126 -6.5014,-4.10492 -26.2439,-11.36508 -33.3528,-2.72786 -6.159,7.06389 -13.2918,26.0739 -20.7032,48.60799 -6.0234,18.31491 -10.2187,30.70453 -10.2187,30.70453 0,0 0.08,-49.41735 0.1513,-68.16222 0.032,-7.07165 -4.819,-9.42807 -6.281,-9.85524 -6.5836,-1.91074 -19.5543,-5.10279 -25.0603,-5.10279 -6.7932,0 -8.4569,3.79718 -8.4569,9.32993 0,0.72437 -1.0721,65.06273 -1.0721,110.05111 0,1.95413 0,4.08622 0.02,6.35107 -3.7574,20.67711 -15.9426,48.74594 -29.1945,48.74594 -13.2679,0 -19.5276,-11.73473 -19.5276,-65.36788 0,-31.28818 0.9394,-44.89303 1.4012,-67.52248 0.2679,-13.03436 0.7854,-23.04367 0.7562,-25.31509 -0.098,-6.96556 -12.1426,-10.4763 -17.747,-11.77375 -5.6309,-1.30839 -10.5241,-1.81518 -14.3452,-1.59762 -5.4079,0.30516 -9.2343,3.85312 -9.2343,8.73297 0,2.61639 0.03,7.59178 0.03,7.59178 -6.9655,-10.94587 -18.1688,-18.56432 -25.6228,-20.77205 -20.0768,-5.96249 -41.0268,-0.67937 -56.8286,21.43292 -12.5594,17.56925 -20.1299,37.46824 -23.11,66.0578 -2.1784,20.90106 -1.4674,42.09611 2.4042,60.02087 -4.6782,20.22604 -13.3634,28.51253 -22.8737,28.51253 -13.8065,0 -23.8158,-22.53549 -22.6535,-61.50958 0.7668,-25.63481 5.8962,-43.62466 11.5032,-69.65078 2.3909,-11.09457 0.4485,-16.90321 -4.4236,-22.4704 -4.4686,-5.10538 -13.9894,-7.7138 -27.6767,-4.50562 -9.7491,2.28735 -23.6882,4.74708 -36.4413,6.63651 0,0 0.7696,-3.07023 1.4012,-8.48335 3.3168,-28.3879 -27.5308,-26.08463 -37.3729,-17.01746 -5.875,5.41331 -9.874,11.79782 -11.3918,23.27716 -2.4068,18.21678 12.4505,26.80901 12.4505,26.80901 -4.8746,22.31374 -16.8235,51.46307 -29.16,72.53769 -6.6073,11.29123 -11.6623,19.65813 -18.1875,28.55234 -0.024,-3.31189 -0.042,-6.62338 -0.054,-9.91974 -0.1493,-46.91246 0.475,-83.83409 0.7509,-97.14176 0.2681,-13.03416 0.7908,-22.77813 0.7616,-25.04955 -0.074,-5.09483 -3.049,-7.01871 -9.237,-9.45475 -5.4717,-2.15458 -11.9412,-3.6459 -18.6519,-4.16603 -8.4702,-0.66067 -13.573,3.83182 -13.4405,9.14421 0.026,1.00304 0.026,7.16202 0.026,7.16202 -6.9657,-10.94606 -18.169,-18.56432 -25.6228,-20.77225 -20.077,-5.9599 -41.0268,-0.67659 -56.8288,21.43292 -12.5566,17.56925 -20.78,42.22348 -23.11,65.84024 -2.1705,22.01099 -1.7698,40.71625 1.189,56.4731 -3.1923,15.77834 -12.3709,32.27806 -22.7491,32.27806 -13.2678,0 -20.8172,-11.73493 -20.8172,-65.36788 0,-31.28818 0.9393,-44.89303 1.4011,-67.52009 0.2679,-13.03416 0.7855,-23.04606 0.7562,-25.3149 -0.098,-6.96555 -12.1428,-10.47629 -17.747,-11.77652 -5.8644,-1.35597 -10.9273,-1.85481 -14.8149,-1.56836 -5.1293,0.38218 -8.7355,4.97559 -8.7355,8.40134 v 7.89434 c -6.9656,-10.94606 -18.1688,-18.56432 -25.6229,-20.77225 -20.0767,-5.9599 -40.9099,-0.59159 -56.8286,21.43292 -10.3807,14.36107 -18.7847,30.28253 -23.1099,65.52712 -1.2499,10.1851 -1.8019,19.72265 -1.7302,28.63736 -4.1396,25.3157 -22.4226,54.49347 -37.3781,54.49347 -8.7514,0 -17.08631,-16.97447 -17.08631,-53.15084 0,-48.1888 2.9827,-116.79929 3.4869,-123.4119 0,0 18.89591,-0.32108 22.55531,-0.36368 9.4253,-0.10351 17.962,0.11944 30.5158,-0.52272 6.297,-0.32107 12.363,-22.91886 5.8644,-25.7156 -2.9454,-1.26579 -23.7626,-2.37493 -32.0151,-2.5501 -6.939,-0.15725 -26.25701,-1.58687 -26.25701,-1.58687 0,0 1.7328,-45.540537 2.1361,-50.351317 0.3424,-4.00958 -4.8454,-6.07398 -7.8201,-7.32664 -7.2335,-3.05949 -13.7056,-4.52434 -21.377,-6.10583 -10.59853,-2.18643 -15.40671,-0.0478 -16.34606,8.89739 -1.41429,13.575787 -2.14681,53.339337 -2.14681,53.339337 -7.7775,0 -34.34506,-1.52039 -42.12515,-1.52039 -7.22831,0 -15.0299,31.08652 -5.03651,31.46851 11.49786,0.44588 31.53499,0.83066 44.81857,1.23136 0,0 -0.59159,69.74091 -0.59159,91.27196 0,2.29073 0.0199,4.49667 0.0239,6.63711 -7.31072,38.10524 -33.06075,58.68879 -33.06075,58.68879 5.52996,-25.2088 -5.76625,-44.13939 -26.11371,-60.16419 -7.49644,-5.90518 -22.29543,-17.08454 -38.85367,-29.33522 0,0 9.5901,-9.45196 18.09475,-28.46735 6.02621,-13.4695 6.28638,-28.88416 -8.50465,-32.28324 -24.43945,-5.62031 -44.59045,12.32831 -50.60094,31.48981 -4.65688,14.84397 -2.17309,25.85892 6.94983,37.30103 0.66604,0.83603 1.38782,1.69038 2.13348,2.5501 -5.51683,10.63336 -13.09545,24.94944 -19.5144,36.05139 -17.81608,30.82376 -31.27482,55.20469 -41.44597,55.20469 -8.13063,0 -8.02174,-24.75296 -8.02174,-47.92861 0,-19.97944 1.4754,-50.01713 2.65361,-81.11679 0.38995,-10.2852 -4.75265,-16.1444 -13.37395,-21.45142 -5.23815,-3.22411 -16.41771,-9.56343 -22.8924,-9.56343 -9.69122,0 -37.65137,1.31874 -64.07023,77.73878 -3.3294,9.63211 -9.87017,27.18306 -9.87017,27.18306 l 0.56293,-91.89823 c 0,-2.15458 -1.14756,-4.2377 -3.77509,-5.66274 -4.45188,-2.41733 -16.34227,-7.36087 -26.91511,-7.36087 -5.0375,0 -7.55138,2.34308 -7.55138,7.01332 l -0.92222,143.77552 c 0,10.92417 0.28485,23.66831 1.36492,29.24226 1.0761,5.58093 2.81943,10.12099 4.97858,12.82217 2.15597,2.69601 4.64994,4.75265 8.76183,5.60143 3.82705,0.78786 24.78303,3.47889 25.87226,-4.52951 1.30501,-9.59747 1.35497,-19.97842 12.35897,-58.69434 17.13092,-60.27566 39.46656,-89.68513 49.96654,-100.12958 1.83589,-1.82554 3.93215,-1.93443 3.83123,1.0534 -0.44828,13.21491 -2.0246,46.23585 -3.08576,74.28937 -2.84431,75.07463 10.8131,88.98981 30.3303,88.98981 14.93156,0 35.9797,-14.83621 58.54286,-52.39184 14.06664,-23.40416 27.72445,-46.35249 37.53729,-62.89224 6.83836,6.33037 14.51235,13.14366 22.18117,20.42213 17.82125,16.91436 23.67249,32.98651 19.79031,48.23377 -2.96931,11.6561 -14.15146,23.66851 -34.05324,11.9929 -5.80068,-3.40624 -8.27654,-6.03795 -14.10907,-9.87813 -3.13373,-2.06302 -7.91823,-2.67969 -10.78662,-0.51854 -7.45125,5.61814 -11.71281,12.76404 -14.14607,21.61107 -2.36697,8.60856 6.25431,13.15917 15.19151,17.13948 7.69529,3.42575 24.23502,6.53002 34.78298,6.88355 41.09842,1.37448 74.02122,-19.84366 96.93989,-74.5758 4.10254,47.26795 21.56295,74.01585 51.89856,74.01585 20.2812,0 40.6153,-26.21523 49.5075,-52.00448 2.5527,10.51253 6.3314,19.65416 11.2112,27.38468 23.3753,37.0359 68.722,29.06452 91.5003,-2.38488 7.0426,-9.7177 8.1145,-13.20973 8.1145,-13.20973 3.3223,29.69591 27.2362,40.07149 40.9287,40.07149 15.335,0 31.1687,-7.24961 42.2658,-32.23288 1.3005,2.71134 2.7199,5.30065 4.2698,7.75521 23.3751,37.03589 68.7219,29.06451 91.5001,-2.38489 1.0747,-1.4752 2.0061,-2.81345 2.8208,-4.01455 l 0.6686,19.50566 c 0,0 -12.9945,11.92045 -20.9711,19.23315 -35.1066,32.209 -61.8014,56.6457 -63.7651,85.1025 -2.5208,36.2848 26.9072,49.7702 49.1706,51.5374 23.6432,1.8763 43.8899,-11.1843 56.3351,-29.4626 10.9459,-16.0882 18.1107,-50.7148 17.5852,-84.9139 -0.2096,-13.69485 -0.5546,-31.10784 -0.8253,-49.77289 12.339,-14.32921 26.2411,-32.43989 39.0419,-53.63912 13.9499,-23.10259 28.8999,-54.12742 36.5554,-78.27227 0,0 12.9894,0.11147 26.8514,-0.79603 4.4342,-0.28923 5.708,0.61548 4.888,3.86626 -0.9899,3.92717 -17.5135,67.66062 -2.4334,110.11759 10.3224,29.06451 33.5916,38.41555 47.3874,38.41555 16.1496,0 31.5987,-12.19594 39.8778,-30.30622 0.9976,2.01902 2.0405,3.97275 3.1789,5.7764 23.3753,37.03589 68.5629,29.01673 91.5003,-2.38489 5.177,-7.08479 8.1145,-13.20973 8.1145,-13.20973 4.9224,30.73359 28.8231,40.22795 42.5127,40.22795 14.2604,0 27.7935,-5.84607 38.7741,-31.82681 0.459,11.43933 1.1808,20.79316 2.3217,23.74217 0.6953,1.80344 4.7473,4.0675 7.6953,5.16091 13.0449,4.83745 26.35,2.5499 31.2723,1.55482 3.4098,-0.69012 6.0688,-3.42574 6.4323,-10.48983 0.9552,-18.5482 0.3688,-49.71195 5.9917,-72.87228 9.4388,-38.86941 18.2433,-53.94688 22.4201,-61.41126 2.3377,-4.18216 4.9754,-4.87209 5.0709,-0.44589 0.1971,8.95571 0.6422,35.25534 4.2988,70.59012 2.6853,25.98751 6.273,41.34784 9.03,46.20918 7.8678,13.90204 17.5851,14.56032 25.4982,14.56032 5.0337,0 15.5604,-1.391 14.6184,-10.23783 -0.459,-4.31214 0.345,-30.96191 9.6511,-69.25544 6.0765,-25.00698 16.2079,-47.60238 19.8619,-55.86279 1.348,-3.04635 1.9743,-0.64494 1.953,-0.17716 -0.7696,17.2217 -2.497,73.55167 4.5189,104.35951 9.5105,41.7352 37.0226,46.40544 46.6099,46.40544 20.4669,0 37.2057,-15.56893 42.8445,-56.53418 1.3586,-9.85843 -0.6529,-17.47072 -6.6791,-17.47072"
   id="path2" /><g
   id="g4"
   transform="matrix(1.3695116,0,0,1.3695116,48.241293,94.732526)"
   style="fill:#4e4e4e;fill-opacity:1;opacity:0.5"><path
     d="m 127.99975,23.06353 c 34.17763,0 38.22564,0.130073 51.72273,0.745886 12.47987,0.569577 19.25737,2.654806 23.76826,4.407232 5.9742,2.322002 10.23865,5.096211 14.71753,9.575084 4.47887,4.478873 7.25308,8.74333 9.57457,14.717532 1.75294,4.510883 3.83817,11.288386 4.40774,23.767752 0.61582,13.497592 0.74589,17.545599 0.74589,51.723234 0,34.17764 -0.13007,38.22565 -0.74589,51.72273 -0.56957,12.47988 -2.6548,19.25738 -4.40774,23.76826 -2.32149,5.97421 -5.0957,10.23866 -9.57457,14.71754 -4.47888,4.47887 -8.74333,7.25308 -14.71753,9.57457 -4.51089,1.75294 -11.28839,3.83817 -23.76826,4.40774 -13.49506,0.61581 -17.54306,0.74589 -51.72273,0.74589 -34.179676,0 -38.227683,-0.13008 -51.722734,-0.74589 -12.479874,-0.56957 -19.257377,-2.6548 -23.767752,-4.40774 -5.97471,-2.32149 -10.239167,-5.0957 -14.71804,-9.57457 -4.478874,-4.47888 -7.253082,-8.74333 -9.574576,-14.71754 -1.752934,-4.51088 -3.838164,-11.28838 -4.40774,-23.76775 -0.615813,-13.49759 -0.745886,-17.5456 -0.745886,-51.72324 0,-34.177635 0.130073,-38.225642 0.745886,-51.722726 0.569576,-12.479874 2.654806,-19.257377 4.40774,-23.76826 2.321494,-5.974202 5.095702,-10.238659 9.574576,-14.717532 4.478873,-4.478873 8.74333,-7.253082 14.71804,-9.575084 4.510375,-1.752426 11.287878,-3.837655 23.767244,-4.407232 C 89.774099,23.193603 93.822107,23.06353 127.99975,23.06353 M 127.99975,0 C 93.236779,0 88.878325,0.14734807 75.225764,0.77027475 61.601148,1.3921852 52.296879,3.5556614 44.154628,6.7200883 35.737497,9.9912155 28.599245,14.367961 21.483349,21.483857 14.367453,28.599753 9.9907074,35.738005 6.7195802,44.155136 3.5551533,52.297387 1.3916771,61.601656 0.76976665,75.226272 0.14683998,88.878325 0,93.237287 0,128.00025 c 0,34.76297 0.14683998,39.12193 0.76976665,52.77399 0.62191045,13.62461 2.78538665,22.92888 5.94981355,31.07113 3.2711272,8.41663 7.6478728,15.55538 14.7637688,22.67128 7.115896,7.1159 14.254148,11.49264 22.671279,14.76377 8.142251,3.16443 17.44652,5.3279 31.071136,5.94981 C 88.878325,255.85316 93.236779,256 127.99975,256 c 34.76296,0 39.12192,-0.14684 52.77398,-0.76977 13.62461,-0.62191 22.92888,-2.78538 31.07113,-5.94981 8.41714,-3.27113 15.55539,-7.64787 22.67128,-14.76377 7.1159,-7.1159 11.49264,-14.25415 14.76377,-22.67128 3.16443,-8.14225 5.3279,-17.44652 5.94981,-31.07113 C 255.85265,167.12218 256,162.76322 256,128.00025 256,93.237287 255.85265,88.878325 255.22972,75.226272 254.60781,61.601656 252.44434,52.297387 249.27991,44.155136 246.00878,35.738005 241.63204,28.599753 234.51614,21.483857 227.40025,14.367961 220.262,9.9912155 211.84486,6.7200883 203.70261,3.5556614 194.39834,1.3921852 180.77373,0.77027475 167.12167,0.14734807 162.76271,0 127.99975,0 Z m 0,62.270311 c -36.301488,0 -65.729947,29.428459 -65.729947,65.729939 0,36.30149 29.428459,65.72995 65.729947,65.72995 36.30148,0 65.72994,-29.42846 65.72994,-65.72995 0,-36.30148 -29.42846,-65.729939 -65.72994,-65.729939 z m 0,108.396859 c -23.56401,0 -42.666925,-19.10291 -42.666925,-42.66692 0,-23.564 19.102915,-42.666917 42.666925,-42.666917 23.564,0 42.66692,19.102917 42.66692,42.666917 0,23.56401 -19.10292,42.66692 -42.66692,42.66692 z M 211.68634,59.673429 c 0,8.483184 -6.87659,15.360274 -15.35977,15.360274 -8.48318,0 -15.36027,-6.87709 -15.36027,-15.360274 0,-8.483185 6.87709,-15.359767 15.36027,-15.359767 8.48318,0 15.35977,6.876582 15.35977,15.359767 z"
     fill="#0a0a08"
     id="path2-3"
     style="fill:#4e4e4e;fill-opacity:1" /></g></svg>
