<?xml version="1.0" encoding="UTF-8" standalone="no"?>
<svg
   xmlns:dc="http://purl.org/dc/elements/1.1/"
   xmlns:cc="http://creativecommons.org/ns#"
   xmlns:rdf="http://www.w3.org/1999/02/22-rdf-syntax-ns#"
   xmlns:svg="http://www.w3.org/2000/svg"
   xmlns="http://www.w3.org/2000/svg"
   xmlns:sodipodi="http://sodipodi.sourceforge.net/DTD/sodipodi-0.dtd"
   xmlns:inkscape="http://www.inkscape.org/namespaces/inkscape"
   version="1.1"
   id="Layer_1"
   x="0px"
   y="0px"
   viewBox="0 0 2030.6 546.3"
   style="enable-background:new 0 0 2030.6 546.3;"
   xml:space="preserve"
   sodipodi:docname="linkedin.svg"
   inkscape:version="1.0.2 (e86c870879, 2021-01-15)"><metadata
   id="metadata13"><rdf:RDF><cc:Work
       rdf:about=""><dc:format>image/svg+xml</dc:format><dc:type
         rdf:resource="http://purl.org/dc/dcmitype/StillImage" /><dc:title></dc:title></cc:Work></rdf:RDF></metadata><defs
   id="defs11" /><sodipodi:namedview
   pagecolor="#ffffff"
   bordercolor="#666666"
   borderopacity="1"
   objecttolerance="10"
   gridtolerance="10"
   guidetolerance="10"
   inkscape:pageopacity="0"
   inkscape:pageshadow="2"
   inkscape:window-width="1366"
   inkscape:window-height="699"
   id="namedview9"
   showgrid="false"
   inkscape:zoom="0.29621787"
   inkscape:cx="1140.1713"
   inkscape:cy="380.93877"
   inkscape:window-x="0"
   inkscape:window-y="32"
   inkscape:window-maximized="1"
   inkscape:current-layer="Layer_1"
   inkscape:document-rotation="0" />
<style
   type="text/css"
   id="style2">
	.st0{fill:#CED4DA;}
</style>

<g
   transform="matrix(2.1365816,0,0,2.1365816,-246.65112,-577.48328)"
   id="g843"
   style="clip-rule:evenodd;fill-rule:evenodd;stroke-linejoin:round;stroke-miterlimit:2;fill:#4e4e4e;fill-opacity:1;opacity:0.5"><path
     d="m 1048.57,498.296 c 0.01,0 0.02,0 0.04,0 2.27,0 4.14,-1.869 4.14,-4.14 0,-0.08 0,-0.159 -0.01,-0.239 0,-3.105 -1.87,-4.589 -5.72,-4.589 h -6.21 v 16.26 h 2.34 V 498.5 h 2.87 l 0.06,0.086 4.46,7.002 h 2.5 l -4.79,-7.247 z m -2.71,-1.629 h -2.71 v -5.496 h 3.44 c 1.77,0 3.79,0.289 3.79,2.612 0,2.671 -2.04,2.884 -4.53,2.884 M 138.462,320.509 h 34.482 v 125.606 h 63.839 v 31.822 h -98.321 z m 113.566,50.687 h 33.127 v 106.682 h -33.127 z m 16.563,-53.037 c 10.541,0.002 19.214,8.676 19.214,19.217 0,10.542 -8.675,19.217 -19.217,19.217 -10.542,0 -19.217,-8.675 -19.217,-19.217 0,-10.542 8.675,-19.217 19.217,-19.217 10e-4,0 0.002,0 0.003,0 m 155.137,2.326 h 33.127 v 94.083 l 37.544,-43.42 h 40.615 l -43.479,49.39 42.564,57.385 h -41.636 l -35.166,-52.734 h -0.435 v 52.727 h -33.127 z m -120.205,50.722 h 31.812 v 14.579 h 0.452 c 6.465,-11.077 18.55,-17.716 31.367,-17.233 33.593,0 39.776,22.102 39.776,50.815 v 58.503 h -33.127 v -51.867 c 0,-12.381 -0.227,-28.296 -17.253,-28.296 -17.219,0 -19.876,13.482 -19.876,27.395 v 52.755 h -33.127 z"
     style="fill:#4e4e4e;fill-rule:nonzero;fill-opacity:1"
     id="path839" /><path
     d="m 604.777,412.129 c 0.003,-0.156 0.005,-0.313 0.005,-0.469 0,-10.896 -8.966,-19.862 -19.862,-19.862 -0.161,0 -0.321,0.002 -0.482,0.006 -11.965,-0.745 -22.467,8.373 -23.409,20.325 z m 28.061,47.274 c -11.141,13.51 -27.791,21.311 -45.301,21.226 -33.127,0 -59.649,-22.113 -59.649,-56.354 0,-34.241 26.519,-56.343 59.649,-56.343 30.963,0 50.38,22.084 50.38,56.343 v 10.387 h -76.888 c 1.97,12.124 12.685,21.038 24.965,20.77 9.571,-0.06 18.484,-4.975 23.641,-13.037 z m 74.128,-62.42 c -16.563,0 -26.501,11.06 -26.501,27.175 0,16.115 9.934,27.184 26.501,27.184 16.567,0 26.526,-11.042 26.526,-27.184 0,-16.143 -9.942,-27.175 -26.526,-27.175 m 57.023,80.875 H 733.492 V 463.71 h -0.452 c -7.75,10.423 -19.946,16.644 -32.934,16.798 -31.829,0 -52.796,-22.972 -52.796,-55.457 0,-29.834 18.555,-57.23 49.055,-57.23 13.71,0 26.516,3.751 34.028,14.148 h 0.435 v -61.495 h 33.157 z m 223.637,0.062 h -33.127 v -51.878 c 0,-12.371 -0.221,-28.296 -17.229,-28.296 -17.254,0 -19.894,13.478 -19.894,27.395 v 52.775 H 884.25 V 371.234 h 31.801 v 14.579 h 0.446 c 6.475,-11.071 18.559,-17.708 31.377,-17.232 33.575,0 39.766,22.084 39.766,50.815 z M 846.872,356.651 c -0.002,0 -0.003,0 -0.004,0 -10.546,0 -19.224,-8.677 -19.224,-19.223 0,-10.546 8.678,-19.224 19.224,-19.224 10.545,0 19.222,8.676 19.224,19.22 0,0.001 0,0.002 0,0.004 0,10.544 -8.676,19.222 -19.22,19.223 M 863.435,477.92 H 830.274 V 371.234 h 33.161 z M 1004.14,287.441 H 813.627 c -8.943,-0.101 -16.388,7.171 -16.497,16.114 v 191.304 c 0.105,8.948 7.549,16.228 16.497,16.132 h 190.513 c 8.97,0.113 16.44,-7.166 16.56,-16.132 V 303.542 c -0.12,-8.962 -7.6,-16.233 -16.56,-16.115 m 42.01,194.658 c -8.31,0.08 -15.1,6.936 -15.1,15.244 0,8.364 6.88,15.246 15.24,15.246 8.37,0 15.25,-6.882 15.25,-15.246 0,-8.308 -6.79,-15.164 -15.1,-15.244 h -0.29 m 0,28.744 c -0.08,10e-4 -0.15,0.002 -0.23,0.002 -7.33,0 -13.36,-6.034 -13.36,-13.368 0,-7.333 6.03,-13.368 13.36,-13.368 7.25,0 13.25,5.897 13.37,13.145 v 0.225 c 0.15,7.173 -5.62,13.202 -12.79,13.357 h -0.35"
     style="fill:#4e4e4e;fill-rule:nonzero;fill-opacity:1"
     id="path841" /></g></svg>
