<?xml version="1.0" encoding="UTF-8" standalone="no"?>
<svg
   xmlns:dc="http://purl.org/dc/elements/1.1/"
   xmlns:cc="http://creativecommons.org/ns#"
   xmlns:rdf="http://www.w3.org/1999/02/22-rdf-syntax-ns#"
   xmlns:svg="http://www.w3.org/2000/svg"
   xmlns="http://www.w3.org/2000/svg"
   xmlns:sodipodi="http://sodipodi.sourceforge.net/DTD/sodipodi-0.dtd"
   xmlns:inkscape="http://www.inkscape.org/namespaces/inkscape"
   version="1.1"
   id="Layer_1"
   x="0px"
   y="0px"
   viewBox="0 0 2030.6 546.3"
   style="enable-background:new 0 0 2030.6 546.3;"
   xml:space="preserve"
   sodipodi:docname="orcid.svg"
   inkscape:version="1.0.2 (e86c870879, 2021-01-15)"><metadata
   id="metadata13"><rdf:RDF><cc:Work
       rdf:about=""><dc:format>image/svg+xml</dc:format><dc:type
         rdf:resource="http://purl.org/dc/dcmitype/StillImage" /><dc:title></dc:title></cc:Work></rdf:RDF></metadata><defs
   id="defs11" /><sodipodi:namedview
   pagecolor="#ffffff"
   bordercolor="#666666"
   borderopacity="1"
   objecttolerance="10"
   gridtolerance="10"
   guidetolerance="10"
   inkscape:pageopacity="0"
   inkscape:pageshadow="2"
   inkscape:window-width="1366"
   inkscape:window-height="699"
   id="namedview9"
   showgrid="false"
   inkscape:zoom="0.20945766"
   inkscape:cx="806.47319"
   inkscape:cy="262.75825"
   inkscape:window-x="0"
   inkscape:window-y="32"
   inkscape:window-maximized="1"
   inkscape:current-layer="Layer_1"
   inkscape:document-rotation="0" />
<style
   type="text/css"
   id="style2">
	.st0{fill:#CED4DA;}
</style>

<path
   id="path2067"
   style="fill:#4e4e4e;stroke-width:6.60272;fill-opacity:1;opacity:0.5"
   d="M 1683.0605 144.3457 L 1683.0605 503.0332 L 1822.9297 503.0332 C 1941.2925 503.0332 2013.3262 415.72923 2013.3262 323.68945 C 2013.3262 239.01354 1954.9456 144.3457 1822.4277 144.3457 L 1683.0605 144.3457 z M 1734.5938 190.62891 L 1814.0059 190.62891 C 1914.4413 190.62891 1960.2207 251.62808 1960.2207 323.68945 C 1960.2207 367.86817 1933.3748 456.76172 1816.625 456.76172 L 1734.5938 456.76172 L 1734.5938 190.62891 z " /><path
   id="path2063"
   style="fill:#7d7d7d;stroke-width:6.60272;fill-opacity:1;opacity:0.5"
   d="M 888.81445 144.3457 L 888.81445 503.0332 L 940.33398 503.0332 L 940.33398 347.36523 L 961.9082 347.36523 C 988.19035 347.36523 1009.7644 355.78525 1057.1191 429.41016 L 1104.4219 503.0332 L 1165.9473 503.0332 C 1141.2605 468.86028 1132.3015 456.76671 1117.0605 432.05273 C 1089.7192 387.33265 1069.7326 354.18584 1037.1172 332.61328 C 1075.5046 317.38102 1097.0703 286.36093 1097.0703 244.81836 C 1097.0703 182.74328 1051.8382 144.3457 979.25391 144.3457 L 888.81445 144.3457 z M 940.33398 188.53906 L 973.47656 188.53906 C 1023.4504 188.53906 1043.4209 209.04744 1043.9531 242.70312 C 1044.4748 272.68122 1028.705 301.07031 973.47656 301.07031 L 940.33398 301.07031 L 940.33398 188.53906 z " /><path
   id="path2059"
   style="fill:#7d7d7d;stroke-width:6.60272;fill-opacity:1;opacity:0.5"
   d="M 637.62695 139.61328 C 521.40592 139.61328 445.16797 224.29087 445.16797 323.68945 C 445.16797 420.99748 519.30102 507.7793 636.5957 507.7793 C 758.09478 507.7793 830.66602 420.47398 830.66602 323.68945 C 830.66602 223.77738 755.98059 139.61328 637.62695 139.61328 z M 637.62695 186.92773 C 718.10673 186.92773 777.56055 244.8098 777.56055 323.68945 C 777.56055 402.05104 718.10673 460.42578 637.62695 460.42578 C 557.68392 460.42578 498.27344 402.05104 498.27344 323.68945 C 498.27344 244.8098 557.68392 186.92773 637.62695 186.92773 z " /><path
   id="path853"
   d="m 223.53878,124.28118 c -105.91127,0 -191.748833,85.83755 -191.748833,191.74883 0,105.91128 85.837563,191.74883 191.748833,191.74883 105.91127,0 191.74883,-85.83755 191.74883,-191.74883 0,-105.91128 -85.83756,-191.74883 -191.74883,-191.74883 z m -74.00365,69.95719 c 8.389,0 15.12954,6.89331 15.12954,15.13251 0,8.23922 -6.74054,15.1296 -15.12954,15.1296 -8.38899,0 -15.12963,-6.89038 -15.12963,-15.1296 0,-8.389 6.74064,-15.13251 15.12963,-15.13251 z m -11.53373,48.537 h 23.07042 v 72.50562 87.93365 H 138.0014 Z m 56.92547,0 h 62.31774 c 59.32232,0 85.38818,42.39389 85.38818,80.29424 0,41.19605 -32.2089,80.29717 -85.08956,80.29717 h -62.61636 z m 23.07034,20.82331 v 118.94479 h 36.70192 c 52.28158,0 64.26361,-39.69976 64.26361,-59.47386 0,-32.2078 -20.52207,-59.47093 -65.46323,-59.47093 z"
   style="stroke-width:1.49804;fill:#4e4e4e;fill-opacity:1;opacity:0.5" /><path
   style="fill:#4e4e4e;stroke-width:6.60272;fill-opacity:1;opacity:0.5"
   d="m 1559.6474,144.34563 v 358.68716 h 51.5321 V 144.34563 Z"
   id="path2065" /><path
   style="fill:#7d7d7d;stroke-width:6.60272;fill-opacity:1;opacity:0.5"
   d="m 1361.0501,139.61288 c -114.131,0 -196.7014,79.93475 -196.7014,189.33793 0,75.21702 58.9048,178.82803 193.5548,178.82803 56.2656,0 94.6412,-13.15123 129.8877,-31.55631 v -56.29075 c -40.5063,26.30521 -84.6402,40.49306 -125.155,40.49306 -86.2765,0 -145.1825,-55.73611 -145.1825,-136.20682 0,-78.88837 61.0204,-137.29003 143.0677,-137.29003 41.5561,0 79.4247,11.5811 123.6074,37.35954 v -55.2333 c -48.938,-20.49184 -86.2552,-29.44135 -123.0787,-29.44135 z"
   id="path2061" /><path
   style="fill:#4e4e4e;stroke-width:6.60272;fill-opacity:1;opacity:0.5"
   d="m 1585.4138,35.878043 c -18.5801,0 -33.775,15.213178 -33.775,33.787335 0,18.58393 15.1949,33.800212 33.775,33.800212 18.5688,0 33.7999,-15.216282 33.7999,-33.800212 0,-18.574157 -15.2311,-33.787335 -33.7999,-33.787335 z"
   id="path839" /></svg>
